<?xml version="1.0" encoding="utf-8"?>
<!-- Generator: Adobe Illustrator 26.0.3, SVG Export Plug-In . SVG Version: 6.00 Build 0)  -->
<svg version="1.1" xmlns="http://www.w3.org/2000/svg" xmlns:xlink="http://www.w3.org/1999/xlink" x="0px" y="0px"
	 viewBox="0 0 700 700" style="enable-background:new 0 0 700 700;" xml:space="preserve">
<style type="text/css">
	.st0{display:none;}
	.st1{display:inline;}
	.st2{font-family:'LearningCurve';}
	.st3{font-size:172px;}
	.st4{fill:none;stroke:#FF3600;stroke-width:12;stroke-linecap:round;stroke-miterlimit:10;}
</style>
<g id="Layer_1" class="st0">
	<text transform="matrix(1 0 0 1 210.3779 200.6665)" class="st1"><tspan x="0" y="0" class="st2 st3">WHO</tspan><tspan x="62.78" y="206.4" class="st2 st3">IS</tspan><tspan x="81.7" y="412.8" class="st2 st3">IT</tspan></text>
</g>
<g id="Layer_2">
	<path class="st4" d="M217.21,107.94c0,0,19.23-19.23,30.81-4.6c0,0,1.87,3.4-4.6,15.32c0,0-27.06,56.51-23.83,67.57
		c0,0,1.53,13.62,19.4,1.53c0,0,42.89-43.57,52.26-60.6c0,0,12.04-19.34,10.04-23.66c0,0-1.02-8.68-8.34,4.77
		c0,0-25.19,45.11-25.87,79.83c0,0,1.19,16.51,26.38-4.26c0,0,45.96-42.72,51.4-72.34"/>
	<path class="st4" d="M353.38,99.26c0,0,13.79-2.21-1.02,26.38l-28.77,68.69c0,0,13.62-40.61,25.19-44.01c0,0,40.34,1.7,45.28-5.79
		c0,0,8.17-9.61,21.28-45.32l-29.79,71.19c0,0-13.28,34.21,13.62,19.23c0,0,14.98-12.09,17.36-18.04"/>
	<path class="st4" d="M465.21,95.85c0,0-33.36-4.43-47.83,48.34c0,0-11.91,43.57,10.55,51.23c0,0,27.57,4.43,44.09-41.02
		c0,0,14.3-37.62,5.11-52.6c0,0-14.3-8-14.81,15.15c0,0,1.36,11.91,13.45,13.11c0,0,18.21-1.7,21.45-21.11"/>
	<path class="st4" d="M269.64,382.83c0,0-3.91,36.26,41.36,5.28c0,0,35.93-38.22,33.8-73.83c0,0,0.76-19.61-17.63,2.17
		c0,0-18.89,30.3-17.02,69.11c0,0,3.06,13.45,7.15,16.17"/>
	<path class="st4" d="M335.17,400.7l60.09-90.72c0,0,3.74-13.62-10.72-4.6c0,0-15.49,13.45-2.04,36.77s16.17,30.3,16.17,30.3
		s6.3,24-16.51,31.15c0,0-28.09,5.96-20.26-6.3c0,0,3.06-3.91,27.74-3.06c0,0,15.15,1.19,29.45-16.51"/>
	<path class="st4" d="M288.87,588.62c0,0-5.28,32,35.23,10.55c0,0,31.66-30.81,37.62-58.04c0,0,13.11-37.45-7.32-26.72
		c0,0-23.32,22.81-25.02,62.81c0,0-2.72,24.34,6.98,30.98"/>
	<path class="st4" d="M360.87,530.91c0,0-10.38-5.45-4.09-14.3c0,0,4.26-9.53,30.98-2.04c0,0,31.83,6.52,45.28-2.1"/>
	<line class="st4" x1="403.09" y1="516.6" x2="365.86" y2="605.3"/>
</g>
</svg>
