<?xml version="1.0" encoding="utf-8"?>
<!-- Generator: Adobe Illustrator 26.0.3, SVG Export Plug-In . SVG Version: 6.00 Build 0)  -->
<svg version="1.1" xmlns="http://www.w3.org/2000/svg" xmlns:xlink="http://www.w3.org/1999/xlink" x="0px" y="0px"
	 viewBox="0 0 600 500" style="enable-background:new 0 0 600 500;" xml:space="preserve">
<style type="text/css">
	.st0{display:none;}
	.st1{display:inline;}
	.st2{font-family:'LearningCurve';}
	.st3{font-size:72px;}
	.st4{fill:none;stroke:#FF3C00;stroke-width:5;stroke-miterlimit:10;}
</style>
<g id="Layer_1" class="st0">
	<text transform="matrix(1 0 0 1 245.4604 137.9763)" class="st1"><tspan x="0" y="0" class="st2 st3">WHO</tspan><tspan x="26.28" y="86.4" class="st2 st3">IS</tspan><tspan x="34.2" y="172.8" class="st2 st3">IT</tspan></text>
</g>
<g id="Layer_2">
	<path class="st4" d="M219.13,113.41c0,0,16.46-9.77,19.44-1.51c0,0-0.72,5.68-4.35,12.38l-13.15,29.41c0,0-4.72,13.77,7.23,8.26
		c0.18-0.08,0.36-0.17,0.55-0.26c12.64-6.19,39.22-40.85,39.22-40.85s8.02-11.87,1.87-9.98c0,0-3.64,0.86-11.38,16.68
		c0,0-11.56,31.05-8.3,33.28c0,0,3.54,5.85,14.83-2.92c0,0,25.18-20.47,32.18-36.98c0,0,4.06-8.03,2.08-10.38
		c0,0,0.53-3.3-9.72,2.98c0,0,19.77-11.09,16.79,2.75l-20.24,45.32c0,0,5.84-20.2,13.9-22.99c0.15-0.05,0.31-0.1,0.47-0.14
		c8.3-2.15,26.39,0.95,28.35-3.61l12.31-26.28c0,0-22.38,46.31-20.33,51.3s10.07,0.17,10.07,0.17s8.61-6.65,11.1-9.98
		c2.49-3.33,29.35-42.43,29.35-42.43s-12.31-4.47-25.99,18.69c0,0-7.11,14.7-5.86,25.79c0.22,1.94,0.69,3.78,1.51,5.4
		c5.47,10.89,20.02,2.64,20.02,2.64s13.93-11.47,16.17-23.51c0,0,6.34-20.98,0-26.83c0,0-9.58-1.15-6.84,12.61c0,0,4.6,9.17,16.17,0
		c0,0,5.1-3.33,4.6-6.88"/>
	<path class="st4" d="M252.32,268.75c0,0-1.86,20.77,23.41,3.16c0,0,18.56-15.72,23.78-39.97c0,0,0.5-9.75-8.7-4.24
		c0,0-26.98,39.1-7.34,54.7l46.45-54.58c0,0,1.77-8.07-8.21-1.8c0,0-9.98,10.66,3.92,28.03s-2.61,26.32-2.61,26.32
		s-13.06,3.53-15.3-0.6c0,0-2.8-4.04,19.03-4.47c0,0,11.64-2.42,17.48-9.68"/>
	<path class="st4" d="M263.7,385.48c0,0-0.75,22.93,28.6,0c0,0,18.4-22.36,17.91-37.61c0,0-0.12-13.3-11.07,0
		c0,0-29.72,52.17,5.97,52.63l27.22-55.54"/>
	<path class="st4" d="M307.34,352.69c0,0-16.51-14.75,21.51-9.63c0,0,23.38,8.75,22.88-0.67"/>
</g>
</svg>
